<svg xmlns="http://www.w3.org/2000/svg" width="227" height="65" viewBox="0 0 227 65" fill="none"><path d="M25.7023 2.05082C26.1573 2.05082 26.3847 2.27827 26.8396 2.50573C24.1102 3.643 21.3807 6.59991 20.016 12.9686L15.012 14.3334C16.6042 9.78427 19.7885 2.05082 25.7023 2.05082ZM28.2043 4.32536C28.6593 5.69009 29.1142 7.28227 29.1142 9.78427C29.1142 10.0117 29.1142 10.0117 29.1142 10.2392L22.518 12.0588C23.8827 7.28227 26.1573 5.23518 28.2043 4.32536ZM34.1182 8.41954L31.1613 9.32936C31.1613 9.1019 31.1613 8.87445 31.1613 8.647C31.1613 6.59991 30.9338 5.00773 30.4789 3.643C32.0711 4.09791 33.4358 6.145 34.1182 8.41954ZM48.9027 12.0588C48.9027 11.8314 48.6752 11.6039 48.4478 11.6039C47.9929 11.6039 43.2163 11.149 43.2163 11.149C43.2163 11.149 39.8045 7.73718 39.3496 7.50972C38.8947 7.05482 38.2123 7.28227 37.9849 7.28227C37.9849 7.28227 37.3025 7.50972 36.1652 7.96463C35.028 4.78027 32.9809 1.82336 29.5691 1.82336H29.3416C28.4318 0.458637 27.0671 0.0037286 25.9298 0.0037286C17.7414 -0.223726 13.8747 10.0117 12.51 15.2432C10.6904 15.6981 8.87072 16.3804 6.82363 17.0628C5.004 17.5177 5.004 17.7452 4.77654 19.3374C4.54909 20.4746 0 56.4124 0 56.4124L36.1652 63.2361L55.7263 58.9144C55.7263 58.9144 48.9027 12.5137 48.9027 12.0588Z" fill="#8DB849"></path><path d="M48.2205 11.6039C47.993 11.6039 43.2165 11.149 43.2165 11.149C43.2165 11.149 39.8047 7.73714 39.3498 7.50968C39.1223 7.28223 39.1223 7.28223 38.8949 7.28223L36.1654 63.236L55.7265 58.9144C55.7265 58.9144 48.9029 12.5137 48.9029 12.0588C48.9029 11.8313 48.4479 11.6039 48.2205 11.6039Z" fill="#5A863E"></path><path d="M29.5689 22.5219L27.0669 29.8005C27.0669 29.8005 25.0198 28.6632 22.2904 28.6632C18.4236 28.6632 18.1962 30.9377 18.1962 31.6201C18.1962 34.8045 26.8395 36.1692 26.8395 43.9026C26.8395 50.0439 22.9727 53.9106 17.7413 53.9106C11.6 53.9106 8.41565 50.0439 8.41565 50.0439L10.0078 44.585C10.0078 44.585 13.1922 47.3144 15.9216 47.3144C17.7413 47.3144 18.4236 45.9497 18.4236 44.8125C18.4236 40.4908 11.3726 40.2634 11.3726 33.2123C11.3726 27.2985 15.6942 21.6121 24.11 21.6121C27.9767 21.3847 29.5689 22.5219 29.5689 22.5219Z" fill="#FFFFFE"></path><path d="M78.6997 35.9414C76.6526 34.8041 75.7428 33.8943 75.7428 32.757C75.7428 31.1648 77.1075 30.255 79.382 30.255C81.884 30.255 84.1586 31.3923 84.1586 31.3923L85.9782 25.9334C85.9782 25.9334 84.386 24.5687 79.6095 24.5687C72.7859 24.5687 68.2368 28.4354 68.2368 33.8943C68.2368 37.0787 70.5113 39.3532 73.2408 40.9454C75.5153 42.3101 76.4251 43.2199 76.4251 44.5847C76.4251 45.9494 75.2879 47.3141 73.0133 47.3141C69.8289 47.3141 66.6446 45.7219 66.6446 45.7219L64.825 51.1808C64.825 51.1808 67.5544 53.0005 72.3309 53.0005C79.1546 53.0005 84.1586 49.5887 84.1586 43.4474C84.1586 40.0356 81.6566 37.5336 78.6997 35.9414ZM106.222 24.3412C102.81 24.3412 100.08 25.9334 98.0333 28.4354L100.99 12.9685H93.2568L85.7508 52.3181H93.4842L95.9862 38.8983C96.896 33.8943 99.6255 30.7099 102.127 30.7099C103.947 30.7099 104.629 31.8472 104.629 33.6668C104.629 34.8041 104.629 35.9414 104.402 37.0787L101.445 52.5456H109.179L112.135 36.6238C112.363 35.0316 112.59 32.9845 112.59 31.6198C112.59 27.0707 110.316 24.3412 106.222 24.3412ZM126.01 46.8592C123.281 46.8592 122.371 44.5847 122.371 41.8552C122.371 37.5336 124.645 30.255 128.74 30.255C131.469 30.255 132.379 32.5296 132.379 34.8041C132.379 39.8081 130.104 46.8592 126.01 46.8592ZM129.877 24.3412C120.551 24.3412 114.41 32.757 114.41 42.0827C114.41 47.9965 118.049 52.773 125.1 52.773C134.199 52.773 140.34 44.5847 140.34 35.0316C140.34 29.5727 137.155 24.3412 129.877 24.3412ZM152.622 47.0867C150.575 47.0867 149.438 45.9494 149.438 45.9494L150.803 38.6708C151.713 33.8943 154.215 30.7099 156.944 30.7099C159.219 30.7099 160.128 32.9845 160.128 35.0316C159.901 40.0356 156.944 47.0867 152.622 47.0867ZM160.128 24.3412C154.897 24.3412 151.94 28.8903 151.94 28.8903L152.395 24.7961H145.571C145.344 27.5256 144.661 31.8472 143.979 35.0316L138.52 63.2359H146.254L148.301 51.8632H148.528C148.528 51.8632 150.12 52.773 153.077 52.773C162.175 52.773 168.089 43.4474 168.089 34.1218C168.089 29.1178 165.815 24.3412 160.128 24.3412ZM179.007 13.4234C176.505 13.4234 174.685 15.4705 174.685 17.9725C174.685 20.247 176.05 21.8392 178.325 21.8392C180.827 21.8392 182.874 20.247 182.874 17.2901C182.874 15.0156 181.282 13.4234 179.007 13.4234ZM168.317 52.3181H176.05L181.282 25.0236H173.548L168.317 52.3181ZM200.843 25.0236H195.384L195.611 23.6589C196.066 20.9294 197.658 18.6549 200.16 18.6549C201.525 18.6549 202.662 19.1098 202.662 19.1098L204.255 12.9685C204.255 12.9685 202.89 12.2861 200.16 12.2861C197.431 12.2861 194.701 12.9685 192.654 14.7881C189.925 17.0627 188.788 20.247 188.105 23.4314L187.878 24.7961H184.239L183.101 30.7099H186.741L182.646 52.3181H190.38L194.474 30.7099H199.705L200.843 25.0236ZM219.267 25.0236C219.267 25.0236 214.49 37.0787 212.215 43.6748C211.988 41.6277 210.396 25.0236 210.396 25.0236H202.207L206.757 50.0436C206.757 50.4985 206.757 50.9534 206.529 51.4083C205.619 53.2279 204.027 54.8201 202.435 55.9574C201.07 57.0947 199.251 57.777 198.113 58.2319L200.16 64.8281C201.753 64.6006 204.937 63.2359 207.666 60.7339C211.078 57.5496 214.49 52.3181 217.674 45.4945L227 25.251L219.267 25.0236Z" fill="#0F0F0F"></path></svg>