<svg xmlns="http://www.w3.org/2000/svg" width="227" height="61" viewBox="0 0 227 61" fill="none"><path d="M22.179 27.7609L18.843 30.7853L0 0C11.5064 5.51047 23.0369 11.0209 34.5587 16.5314L29.6942 20.979L22.179 27.7609Z" fill="black"></path><path d="M33.2027 54.2107C44.08 36.1546 54.9572 18.0562 65.8865 0C50.1172 10.2819 34.6476 20.564 18.8782 30.8459C23.7703 38.62 28.3626 46.4365 33.2027 54.2107Z" fill="#FFB727"></path><path fill-rule="evenodd" clip-rule="evenodd" d="M80.6664 0.777665C80.8947 1.45833 84.5355 14.1275 89.6616 32.0805C92.5678 42.258 94.0109 44.9994 97.3819 46.7444C98.947 47.5547 103.864 47.62 105.863 46.857C108.192 45.9673 110.161 43.3066 111.763 38.8832C112.418 37.0746 122.963 0.716301 122.963 0.266386C122.963 -0.0675858 115.051 -0.0933201 114.843 0.240086C114.721 0.434644 108.03 24.2496 107.242 27.289C106.616 29.7094 104.643 36.5013 104.247 37.6028C103.479 39.7427 102.318 40.5474 100.822 39.9796C99.7598 39.5761 99.1512 37.745 94.5285 21.0676C91.8696 11.4747 89.9309 4.54354 89.0509 1.48463L88.6236 0H84.5144H80.4052L80.6664 0.777665ZM134.914 13.5659C129.757 14.6419 127.373 16.8999 125.927 22.0775C125.513 23.5559 125.417 25.0312 125.412 29.9754C125.409 35.4652 125.471 36.2751 126.06 38.3177C127.91 44.7398 131.47 46.7883 141.397 47.1457C145.185 47.282 150.205 47.0049 153.625 46.4707L154.708 46.3019L154.626 43.5105L154.545 40.7192L145.971 40.6495C137.463 40.5805 137.385 40.5746 135.967 39.873C134.184 38.9913 133.381 37.6237 133.167 35.1117C133.021 33.3838 133.038 33.3253 133.634 33.473C137.06 34.3202 147.229 34.4197 150.115 33.6341C153.41 32.7375 154.836 30.8815 155.285 26.9092C155.827 22.1057 154.761 17.7531 152.601 15.9452C149.472 13.3261 141.32 12.2295 134.914 13.5659ZM170.4 13.5568C163.556 14.986 161.17 18.4796 160.533 28.0019C160.274 31.8801 160.806 37.346 161.715 40.1394C162.896 43.7715 164.748 45.5627 168.535 46.7369C170.31 47.2868 171.15 47.359 175.552 47.3386C179.476 47.3205 180.824 47.2142 181.805 46.8462C182.492 46.5884 183.168 46.3772 183.306 46.3772C183.661 46.3772 183.612 49.4148 183.236 50.757C182.816 52.2563 181.363 53.5676 179.647 53.9971C178.719 54.2295 176.354 54.3144 172.409 54.2561L166.549 54.1702V56.9899V59.8095L169.122 60.1412C172.804 60.6163 179.918 60.6005 182.502 60.1113C187.644 59.1379 189.966 56.7266 191.199 51.0832C191.638 49.0701 191.702 47.1115 191.702 35.4898C191.702 22.3503 191.693 22.1747 191.033 20.0955C190.461 18.2909 190.132 17.7653 188.72 16.3977C186.924 14.6599 185.026 13.8696 181.269 13.2961C178.38 12.8552 173.161 12.9802 170.4 13.5568ZM205.42 13.744C204.792 13.8037 203.473 13.9273 202.491 14.0186L200.705 14.1844L200.704 17.0606V19.9365L207.551 19.8517C214.926 19.76 216.124 19.9094 217.55 21.0963C218.511 21.8959 219.282 23.999 219.282 25.8157C219.282 26.8255 219.225 26.9117 218.64 26.7683C216.28 26.1901 211.306 25.9619 208.062 26.2837C201.62 26.9219 199.317 28.501 198.24 33.0169C197.688 35.3329 197.849 39.791 198.568 42.1353C199.245 44.3411 201.079 46.0559 203.564 46.8064C205.208 47.3024 206.258 47.3669 212.709 47.3669C220.821 47.3669 222.222 47.1372 224.262 45.4736C226.508 43.642 226.999 41.214 226.999 31.9671C226.999 22.1134 226.24 18.7148 223.476 16.1935C221.284 14.195 219.554 13.8014 212.566 13.7121C209.265 13.6699 206.05 13.6844 205.42 13.744ZM145.254 19.5655C147.728 20.1302 148.36 21.3153 148.171 25.0267C148.078 26.845 147.901 27.2658 147.01 27.7867C146.289 28.208 145.382 28.2787 140.696 28.2787C133.781 28.2787 133.595 28.2097 133.137 25.4508C133.046 24.9065 133.082 23.7813 133.216 22.9502C133.519 21.0818 134.391 20.1426 136.297 19.6362C138.057 19.1679 143.331 19.1263 145.254 19.5655ZM181.076 20.529C183.682 21.4076 184.136 22.6656 184.331 29.5513C184.54 36.9843 184.076 38.8239 181.7 39.9904C180.764 40.4507 179.973 40.5311 176.432 40.5246C171.97 40.5163 171.066 40.3232 169.773 39.1024C168.343 37.7527 167.998 36.0678 167.99 30.3996C167.986 26.2543 168.078 25.0423 168.489 23.8704C169.105 22.1177 170.213 21.0137 171.873 20.5015C173.689 19.941 179.382 19.958 181.076 20.529ZM217.541 32.3243C219.217 32.9054 219.686 33.8575 219.668 36.6413C219.656 38.5965 219.544 39.2065 219.085 39.8204C218.04 41.2166 217.253 41.4 212.272 41.4065C208.189 41.4119 207.585 41.3506 206.705 40.8424C205.583 40.1942 205.05 38.8813 205.014 36.6826C204.977 34.4002 205.879 32.9308 207.707 32.2969C208.9 31.8835 216.329 31.9041 217.541 32.3243Z" fill="#0F0F0F"></path></svg>